{
  "accessors": [
    {
      "bufferView": 2,
      "componentType": 5126,
      "count": 6154,
      "max": [
        0.8641496896743774,
        0.8445303440093994,
        0.8822243809700012
      ],
      "min": [
        -0.8641494512557983,
        -0.8445303440093994,
        -0.8543610572814941
      ],
      "type": "VEC3"
    },
    {
      "bufferView": 2,
      "byteOffset": 73848,
      "componentType": 5126,
      "count": 6154,
      "max": [
        1.0,
        0.999989926815033,
        0.9993396401405334
      ],
      "min": [
        -1.0,
        -0.9993367195129395,
        -0.9994025230407715
      ],
      "type": "VEC3"
    },
    {
      "bufferView": 1,
      "componentType": 5126,
      "count": 6154,
      "max": [
        0.3279999792575836,
        0.9791666865348816
      ],
      "min": [
        0.01874999701976776,
        0.027923285961151123
      ],
      "type": "VEC2"
    },
    {
      "bufferView": 0,
      "componentType": 5125,
      "count": 30636,
      "type": "SCALAR"
    },
    {
      "bufferView": 2,
      "byteOffset": 147696,
      "componentType": 5126,
      "count": 1028,
      "max": [
        0.7957596778869629,
        0.4376915693283081,
        0.759766161441803
      ],
      "min": [
        -0.7931807041168213,
        -0.20145350694656372,
        0.2775706648826599
      ],
      "type": "VEC3"
    },
    {
      "bufferView": 2,
      "byteOffset": 160032,
      "componentType": 5126,
      "count": 1028,
      "max": [
        0.9279404878616333,
        0.46422287821769714,
        0.8796347975730896
      ],
      "min": [
        -0.9279409050941467,
        -0.1909119337797165,
        0.352609783411026
      ],
      "type": "VEC3"
    },
    {
      "bufferView": 1,
      "byteOffset": 49232,
      "componentType": 5126,
      "count": 1028,
      "max": [
        0.9400516152381897,
        0.9400514364242554
      ],
      "min": [
        0.0599486269056797,
        0.05994844436645508
      ],
      "type": "VEC2"
    },
    {
      "bufferView": 0,
      "byteOffset": 122544,
      "componentType": 5125,
      "count": 4800,
      "type": "SCALAR"
    }
  ],
  "asset": {
    "extras": {
      "author": "Jeremy Edelblut (https://sketchfab.com/jeremy.toys)",
      "license": "CC-BY-SA-4.0 (http://creativecommons.org/licenses/by-sa/4.0/)",
      "source": "https://sketchfab.com/3d-models/3mojiorg-hugging-face-83bd61bb16224d819dcd2aaca988d283",
      "title": "3moji.org : Hugging Face"
    },
    "generator": "Sketchfab-13.19.0",
    "version": "2.0"
  },
  "bufferViews": [
    {
      "buffer": 0,
      "byteLength": 141744,
      "name": "floatBufferViews",
      "target": 34963
    },
    {
      "buffer": 0,
      "byteLength": 57456,
      "byteOffset": 141744,
      "byteStride": 8,
      "name": "floatBufferViews",
      "target": 34962
    },
    {
      "buffer": 0,
      "byteLength": 172368,
      "byteOffset": 199200,
      "byteStride": 12,
      "name": "floatBufferViews",
      "target": 34962
    }
  ],
  "buffers": [
    {
      "byteLength": 371568,
      "uri": "scene.bin"
    }
  ],
  "images": [
    {
      "uri": "textures/color_baseColor.png"
    },
    {
      "uri": "textures/cheeks_baseColor.png"
    }
  ],
  "materials": [
    {
      "doubleSided": true,
      "name": "color",
      "pbrMetallicRoughness": {
        "baseColorTexture": {
          "index": 0
        },
        "metallicFactor": 0.0,
        "roughnessFactor": 0.5
      }
    },
    {
      "alphaMode": "BLEND",
      "doubleSided": true,
      "name": "cheeks",
      "pbrMetallicRoughness": {
        "baseColorTexture": {
          "index": 1
        },
        "metallicFactor": 0.0,
        "roughnessFactor": 0.32584672925442487
      }
    }
  ],
  "meshes": [
    {
      "name": "Object_0",
      "primitives": [
        {
          "attributes": {
            "NORMAL": 1,
            "POSITION": 0,
            "TEXCOORD_0": 2
          },
          "indices": 3,
          "material": 0,
          "mode": 4
        }
      ]
    },
    {
      "name": "Object_1",
      "primitives": [
        {
          "attributes": {
            "NORMAL": 5,
            "POSITION": 4,
            "TEXCOORD_0": 6
          },
          "indices": 7,
          "material": 1,
          "mode": 4
        }
      ]
    }
  ],
  "nodes": [
    {
      "children": [
        1
      ],
      "matrix": [
        1.0,
        0.0,
        0.0,
        0.0,
        0.0,
        2.220446049250313e-16,
        -1.0,
        0.0,
        0.0,
        1.0,
        2.220446049250313e-16,
        0.0,
        0.0,
        0.0,
        0.0,
        1.0
      ],
      "name": "Sketchfab_model"
    },
    {
      "children": [
        2
      ],
      "name": "root"
    },
    {
      "children": [
        3
      ],
      "matrix": [
        1.0,
        0.0,
        0.0,
        0.0,
        0.0,
        2.220446049250313e-16,
        1.0,
        0.0,
        0.0,
        -1.0,
        2.220446049250313e-16,
        0.0,
        0.0,
        0.0,
        0.0,
        1.0
      ],
      "name": "GLTF_SceneRootNode"
    },
    {
      "children": [
        4,
        5
      ],
      "name": "Hugging Face_0"
    },
    {
      "mesh": 0,
      "name": "Object_4"
    },
    {
      "mesh": 1,
      "name": "Object_5"
    }
  ],
  "samplers": [
    {
      "magFilter": 9729,
      "minFilter": 9987,
      "wrapS": 10497,
      "wrapT": 10497
    }
  ],
  "scene": 0,
  "scenes": [
    {
      "name": "Sketchfab_Scene",
      "nodes": [
        0
      ]
    }
  ],
  "textures": [
    {
      "sampler": 0,
      "source": 0
    },
    {
      "sampler": 0,
      "source": 1
    }
  ]
}
